<?xml version="1.0" encoding="UTF-8" standalone="no"?>
<!-- Created with Inkscape (http://www.inkscape.org/) -->

<svg
   xmlns:dc="http://purl.org/dc/elements/1.1/"
   xmlns:cc="http://creativecommons.org/ns#"
   xmlns:rdf="http://www.w3.org/1999/02/22-rdf-syntax-ns#"
   xmlns:svg="http://www.w3.org/2000/svg"
   xmlns="http://www.w3.org/2000/svg"
   xmlns:sodipodi="http://sodipodi.sourceforge.net/DTD/sodipodi-0.dtd"
   xmlns:inkscape="http://www.inkscape.org/namespaces/inkscape"
   width="171.34416mm"
   height="30.532917mm"
   viewBox="0 0 171.34416 30.532917"
   version="1.1"
   id="svg8"
   inkscape:version="0.92.4 5da689c313, 2019-01-14"
   sodipodi:docname="FreeFem_Modules.svg">
  <defs
     id="defs2" />
  <sodipodi:namedview
     id="base"
     pagecolor="#ffffff"
     bordercolor="#666666"
     borderopacity="1.0"
     inkscape:pageopacity="0.0"
     inkscape:pageshadow="2"
     inkscape:zoom="1.979899"
     inkscape:cx="138.30059"
     inkscape:cy="17.438239"
     inkscape:document-units="mm"
     inkscape:current-layer="layer1"
     showgrid="false"
     fit-margin-top="0"
     fit-margin-left="0"
     fit-margin-right="0"
     fit-margin-bottom="0"
     inkscape:window-width="1920"
     inkscape:window-height="1043"
     inkscape:window-x="1920"
     inkscape:window-y="0"
     inkscape:window-maximized="1" />
  <metadata
     id="metadata5">
    <rdf:RDF>
      <cc:Work
         rdf:about="">
        <dc:format>image/svg+xml</dc:format>
        <dc:type
           rdf:resource="http://purl.org/dc/dcmitype/StillImage" />
        <dc:title />
      </cc:Work>
    </rdf:RDF>
  </metadata>
  <g
     inkscape:label="Calque 1"
     inkscape:groupmode="layer"
     id="layer1"
     transform="translate(-22.429108,-123.73949)">
    <path
       style="fill:#00007f;stroke-width:0.26458332"
       inkscape:connector-curvature="0"
       class="st0"
       d="m 67.381816,140.27595 h -4.180417 v 3.83646 h -2.963333 v -10.16 h 7.487708 v 2.27542 h -4.524375 v 1.79916 h 4.180417 z"
       id="path12" />
    <path
       style="fill:#00007f;stroke-width:0.26458332"
       inkscape:connector-curvature="0"
       class="st0"
       d="m 72.752858,140.7522 h -1.164167 v 3.36021 h -2.963333 v -10.16 h 4.497916 c 1.322917,0 2.354792,0.26458 3.095625,0.79375 0.740834,0.50271 1.164167,1.34938 1.11125,2.2225 0.02646,0.635 -0.132291,1.27 -0.423333,1.82563 -0.291042,0.47625 -0.767292,0.87312 -1.42875,1.19062 l 2.2225,4.04813 v 0.10583 h -3.175 z m -1.164167,-2.27541 h 1.534583 c 0.846667,0 1.27,-0.39688 1.27,-1.16417 0,-0.74083 -0.449791,-1.11125 -1.375833,-1.11125 h -1.455208 z"
       id="path14" />
    <path
       style="fill:#00007f;stroke-width:0.26458332"
       inkscape:connector-curvature="0"
       class="st0"
       d="m 85.796816,140.01137 h -3.995208 v 1.85208 h 4.736041 v 2.27542 h -7.699375 v -10.16 h 7.752292 v 2.27542 h -4.788958 v 1.50812 h 3.995208 z"
       id="path16" />
    <path
       style="fill:#00007f;stroke-width:0.26458332"
       inkscape:connector-curvature="0"
       class="st0"
       d="m 94.369316,140.01137 h -3.995209 v 1.85208 h 4.736042 v 2.27542 h -7.699375 v -10.16 h 7.752292 v 2.27542 h -4.788959 v 1.50812 h 3.995209 z"
       id="path18" />
    <path
       style="fill:#00007f;stroke-width:0.26458332"
       inkscape:connector-curvature="0"
       class="st0"
       d="m 103.12702,140.27595 h -4.180413 v 3.83646 h -2.963333 v -10.16 h 7.487706 v 2.27542 h -4.524373 v 1.79916 h 4.180413 z"
       id="path20" />
    <path
       style="fill:#00007f;stroke-width:0.26458332"
       inkscape:connector-curvature="0"
       class="st0"
       d="m 111.32911,140.01137 h -3.99521 v 1.85208 h 4.73604 v 2.27542 h -7.69937 v -10.16 h 7.75229 v 2.27542 h -4.78896 v 1.50812 h 3.99521 z"
       id="path22" />
    <path
       style="fill:#00007f;stroke-width:0.26458332"
       inkscape:connector-curvature="0"
       class="st0"
       d="m 116.8589,133.95241 2.11667,6.50875 2.11666,-6.50875 h 3.91584 v 10.16 h -2.96334 v -1.56104 l 0.29104,-5.45042 -2.4077,7.01146 h -1.905 l -2.40771,-7.01146 0.3175,5.42396 v 1.5875 h -2.96334 v -10.16 z"
       id="path24" />
    <path
       style="fill:#00007f;stroke-width:0.26458332"
       inkscape:connector-curvature="0"
       class="st0"
       d="m 133.42182,134.0847 3.65125,8.73125 3.65125,-8.73125 h 1.11125 v 9.89542 h -0.84667 v -4.31271 l 0.0794,-4.41854 -3.6777,8.73125 h -0.635 l -3.67771,-8.70479 0.0794,4.36562 v 4.33917 h -0.84666 v -9.89542 z"
       id="path26" />
    <path
       style="fill:#00007f;stroke-width:0.26458332"
       inkscape:connector-curvature="0"
       class="st0"
       d="m 151.67806,139.56158 c 0,0.89958 -0.15875,1.71979 -0.47625,2.40771 -0.3175,0.68791 -0.76729,1.21708 -1.34937,1.5875 -0.58208,0.37041 -1.27,0.55562 -2.03729,0.55562 -1.16417,0 -2.09021,-0.42333 -2.80458,-1.24354 -0.71438,-0.82021 -1.05834,-1.93146 -1.05834,-3.36021 v -1.03187 c 0,-0.89959 0.15875,-1.69334 0.47625,-2.40771 0.3175,-0.68792 0.76729,-1.24354 1.34938,-1.61396 0.58208,-0.37042 1.27,-0.55563 2.01083,-0.55563 0.76729,0 1.42875,0.18521 2.01083,0.55563 0.58209,0.37042 1.03188,0.87312 1.34938,1.56104 0.3175,0.66146 0.47625,1.45521 0.50271,2.32833 v 1.21709 z m -0.8202,-1.05834 c 0,-1.19062 -0.26459,-2.11666 -0.82021,-2.80458 -0.52917,-0.68792 -1.27,-1.00542 -2.2225,-1.00542 -0.92604,0 -1.64042,0.34396 -2.19604,1.00542 -0.55563,0.68792 -0.82021,1.61396 -0.82021,2.83104 v 1.03188 c 0,1.16416 0.26458,2.11666 0.82021,2.77812 0.55562,0.68792 1.27,1.03188 2.2225,1.03188 0.9525,0 1.69333,-0.34396 2.2225,-1.00542 0.52916,-0.68792 0.79375,-1.61396 0.79375,-2.83104 z"
       id="path28" />
    <path
       style="fill:#00007f;stroke-width:0.26458332"
       inkscape:connector-curvature="0"
       class="st0"
       d="m 153.79473,143.98012 v -9.89542 h 2.77813 c 0.8202,0 1.53458,0.18521 2.16958,0.55563 0.635,0.37041 1.13771,0.89958 1.50812,1.5875 0.37042,0.68791 0.52917,1.48166 0.52917,2.35479 v 0.89958 c 0,0.87313 -0.18521,1.66688 -0.52917,2.35479 -0.37041,0.68792 -0.87312,1.21709 -1.50812,1.5875 -0.66146,0.37042 -1.40229,0.55563 -2.24896,0.55563 z m 0.82021,-9.18104 v 8.49312 h 1.87854 c 1.03188,0 1.87854,-0.34396 2.51354,-1.03187 0.635,-0.68792 0.9525,-1.64042 0.9525,-2.80459 v -0.87312 c 0,-1.13771 -0.3175,-2.03729 -0.92604,-2.72521 -0.60854,-0.68792 -1.42875,-1.03187 -2.46062,-1.03187 h -1.95792 z"
       id="path30" />
    <path
       style="fill:#00007f;stroke-width:0.26458332"
       inkscape:connector-curvature="0"
       class="st0"
       d="m 169.72265,134.0847 v 6.74688 c 0,0.66146 -0.15875,1.24354 -0.44979,1.74625 -0.29105,0.50271 -0.68792,0.87312 -1.21709,1.13771 -0.52916,0.26458 -1.13771,0.39687 -1.82562,0.39687 -1.03188,0 -1.87854,-0.29104 -2.51354,-0.84667 -0.635,-0.55562 -0.9525,-1.34937 -0.97896,-2.35479 v -6.82625 h 0.82021 v 6.69396 c 0,0.84667 0.23812,1.48167 0.71437,1.93146 0.47625,0.44979 1.11125,0.68792 1.93146,0.68792 0.82021,0 1.45521,-0.23813 1.93146,-0.68792 0.47625,-0.44979 0.71437,-1.11125 0.71437,-1.93146 v -6.69396 z"
       id="path32" />
    <path
       style="fill:#00007f;stroke-width:0.26458332"
       inkscape:connector-curvature="0"
       class="st0"
       d="m 172.89765,143.26574 h 4.89479 v 0.71438 h -5.74146 v -9.89542 h 0.84667 z"
       id="path34" />
    <path
       style="fill:#00007f;stroke-width:0.26458332"
       inkscape:connector-curvature="0"
       class="st0"
       d="m 184.85681,139.24408 h -4.6302 v 4.04812 h 5.31812 v 0.71438 h -6.16479 v -9.89542 h 6.13833 v 0.71438 h -5.29166 v 3.73062 h 4.6302 z"
       id="path36" />
    <path
       style="fill:#00007f;stroke-width:0.26458332"
       inkscape:connector-curvature="0"
       class="st0"
       d="m 192.92661,141.54595 c 0,-0.55562 -0.18521,-0.97896 -0.58209,-1.29646 -0.39687,-0.3175 -1.08479,-0.635 -2.11666,-0.89958 -1.03188,-0.29104 -1.77271,-0.60854 -2.24896,-0.9525 -0.66146,-0.47625 -1.00542,-1.11125 -1.00542,-1.87854 0,-0.76729 0.3175,-1.37583 0.92604,-1.85208 0.635,-0.47625 1.42875,-0.71438 2.38125,-0.71438 0.66146,0 1.24354,0.13229 1.77271,0.37042 0.52917,0.26458 0.92604,0.60854 1.21708,1.05833 0.29105,0.44979 0.42334,0.9525 0.42334,1.50813 h -0.84667 c 0,-0.68792 -0.23812,-1.21709 -0.68792,-1.64042 -0.44979,-0.42333 -1.08479,-0.60854 -1.85208,-0.60854 -0.76729,0 -1.34937,0.15875 -1.79917,0.50271 -0.44979,0.34395 -0.66145,0.76729 -0.66145,1.32291 0,0.50271 0.21166,0.92604 0.60854,1.24354 0.39687,0.3175 1.05833,0.60855 1.93146,0.84667 0.89958,0.23813 1.56104,0.50271 2.01083,0.76729 0.44979,0.26459 0.79375,0.58209 1.03187,0.92604 0.23813,0.37042 0.34396,0.79375 0.34396,1.29646 0,0.76729 -0.3175,1.40229 -0.92604,1.87854 -0.635,0.47625 -1.45521,0.71438 -2.46062,0.71438 -0.68792,0 -1.34938,-0.13229 -1.93146,-0.37042 -0.58209,-0.23812 -1.03188,-0.60854 -1.32292,-1.05833 -0.29104,-0.44979 -0.44979,-0.9525 -0.44979,-1.53458 h 0.84667 c 0,0.68791 0.26458,1.24354 0.79375,1.64041 0.52916,0.39688 1.21708,0.60854 2.0902,0.60854 0.7673,0 1.4023,-0.15875 1.85209,-0.5027 0.42333,-0.37042 0.66146,-0.82021 0.66146,-1.37584 z"
       id="path38" />
    <g
       id="g833"
       transform="matrix(0.18519938,0,0,0.18519938,29.206697,95.854493)">
      <rect
         transform="matrix(1,0,-0.17364818,0.98480775,0,0)"
         rx="3.1896071"
         y="181.58182"
         x="49.328617"
         height="86.368324"
         width="21.264048"
         id="rect1411"
         style="fill:#0000ff;fill-opacity:1;stroke:none;stroke-width:0.8504014;stroke-linecap:round;stroke-linejoin:round;stroke-miterlimit:4;stroke-dasharray:none;stroke-dashoffset:0;stroke-opacity:1" />
      <rect
         transform="matrix(1,0,-0.17364818,0.98480775,0,0)"
         rx="3.1896071"
         y="181.58182"
         x="64.966545"
         height="21.592081"
         width="53.160122"
         id="rect1413"
         style="fill:#0000ff;fill-opacity:1;stroke:none;stroke-width:0.8504014;stroke-linecap:round;stroke-linejoin:round;stroke-miterlimit:4;stroke-dasharray:none;stroke-dashoffset:0;stroke-opacity:1" />
      <rect
         transform="matrix(1,0,-0.17364818,0.98480775,0,0)"
         rx="3.1896071"
         y="218.71571"
         x="72.469795"
         height="16.194061"
         width="21.264048"
         id="rect1415"
         style="fill:#0000ff;fill-opacity:1;stroke:none;stroke-width:0.8504014;stroke-linecap:round;stroke-linejoin:round;stroke-miterlimit:4;stroke-dasharray:none;stroke-dashoffset:0;stroke-opacity:1" />
      <rect
         transform="matrix(1,0,-0.17364818,0.98480775,0,0)"
         rx="3.1896071"
         y="205.23866"
         x="95.834"
         height="86.368324"
         width="21.264048"
         id="rect1411-6"
         style="fill:#0000ff;fill-opacity:1;stroke:none;stroke-width:0.8504014;stroke-linecap:round;stroke-linejoin:round;stroke-miterlimit:4;stroke-dasharray:none;stroke-dashoffset:0;stroke-opacity:1" />
      <rect
         transform="matrix(1,0,-0.17364818,0.98480775,0,0)"
         rx="3.1896071"
         y="205.23866"
         x="111.47193"
         height="21.592081"
         width="53.160122"
         id="rect1413-7"
         style="fill:#0000ff;fill-opacity:1;stroke:none;stroke-width:0.8504014;stroke-linecap:round;stroke-linejoin:round;stroke-miterlimit:4;stroke-dasharray:none;stroke-dashoffset:0;stroke-opacity:1" />
      <rect
         transform="matrix(1,0,-0.17364818,0.98480775,0,0)"
         rx="3.1896071"
         y="242.37254"
         x="118.97518"
         height="16.194061"
         width="21.264048"
         id="rect1415-5"
         style="fill:#0000ff;fill-opacity:1;stroke:none;stroke-width:0.8504014;stroke-linecap:round;stroke-linejoin:round;stroke-miterlimit:4;stroke-dasharray:none;stroke-dashoffset:0;stroke-opacity:1" />
    </g>
  </g>
  <style
     id="style10"
     type="text/css">
	.st0{fill:#00007F;}
	.st1{fill:#0000FF;}
</style>
</svg>
